<svg width="110" height="110" viewBox="0 0 110 110" fill="none" xmlns="http://www.w3.org/2000/svg">
<g clip-path="url(#clip0_2083_1500)">
<path d="M13.1172 45.3115L97.2118 46.9411L63.4194 84.0951L84.1846 53.0217L13.1172 45.3115Z" fill="white"/>
<path d="M54.9966 5.96864C45.2978 5.96679 35.8163 8.84117 27.7512 14.2282C19.6861 19.6152 13.3996 27.2729 9.68678 36.2328C5.97395 45.1928 5.00156 55.0525 6.89257 64.5651C8.78358 74.0778 13.453 82.8161 20.3104 89.6748C27.1678 96.5335 35.9052 101.205 45.4174 103.097C54.9297 104.99 64.7897 104.02 73.7504 100.309C82.711 96.5974 90.3699 90.3124 95.7584 82.2483C101.147 74.1842 104.023 64.7032 104.023 55.0044C104.011 42.0047 98.8419 29.5408 89.6505 20.3478C80.4592 11.1547 67.9963 5.98343 54.9966 5.96864ZM54.9966 109.795C44.1574 109.797 33.5612 106.584 24.548 100.563C15.5348 94.5426 8.50953 85.9842 4.3607 75.9705C0.211881 65.9567 -0.874136 54.9376 1.24003 44.3066C3.3542 33.6756 8.57354 23.9103 16.238 16.2459C23.9024 8.58141 33.6677 3.36201 44.2987 1.24784C54.9297 -0.866323 65.9489 0.219694 75.9626 4.36852C85.9763 8.51734 94.5347 15.5426 100.555 24.5558C106.576 33.569 109.789 44.1653 109.787 55.0044C109.77 69.5305 103.992 83.4566 93.7202 93.7281C83.4488 104 69.5226 109.778 54.9966 109.795Z" fill="white"/>
<path d="M54.9983 103.817C45.3401 103.818 35.8982 100.956 27.8668 95.5915C19.8353 90.2271 13.5752 82.6014 9.87784 73.6789C6.18051 64.7563 5.21212 54.9377 7.09522 45.4648C8.97832 35.9919 13.6284 27.2902 20.4571 20.4602C27.2859 13.6301 35.9867 8.9785 45.4592 7.09359C54.9318 5.20868 64.7505 6.17513 73.6737 9.87075C82.597 13.5664 90.2239 19.8252 95.5899 27.8556C100.956 35.886 103.82 45.3274 103.82 54.9856C103.808 67.931 98.6604 80.3428 89.5075 89.4974C80.3546 98.652 67.9437 103.802 54.9983 103.817ZM54.9983 -0.00976484C44.1187 -0.0116065 33.4828 3.21303 24.4359 9.25632C15.389 15.2996 8.33745 23.89 4.17312 33.9412C0.00879788 43.9924 -1.08121 55.0528 1.04086 65.7235C3.16293 76.3942 8.40176 86.1959 16.0949 93.889C23.788 101.582 33.5897 106.821 44.2605 108.943C54.9312 111.065 65.9915 109.975 76.0427 105.811C86.0939 101.646 94.6844 94.595 100.728 85.5481C106.771 76.5012 109.996 65.8653 109.994 54.9856C109.976 40.4053 104.177 26.4269 93.8669 16.117C83.557 5.80715 69.5787 0.00748569 54.9983 -0.00976484ZM54.9983 104.226C64.7376 104.228 74.2588 101.342 82.3576 95.9322C90.4564 90.5227 96.7691 82.833 100.497 73.8356C104.226 64.8382 105.202 54.9373 103.303 45.3849C101.404 35.8325 96.7155 27.0578 89.8294 20.1705C82.9433 13.2831 74.1695 8.59243 64.6175 6.69171C55.0655 4.791 45.1643 5.7656 36.1662 9.49224C27.1681 13.2189 19.4772 19.5302 14.0662 27.628C8.65516 35.7258 5.76699 45.2464 5.76699 54.9856C5.76577 61.4516 7.03826 67.8544 9.51182 73.8285C11.9854 79.8026 15.6116 85.2309 20.1833 89.8034C24.755 94.3759 30.1826 98.0032 36.1562 100.478C42.1298 102.953 48.5324 104.226 54.9983 104.226ZM54.9983 0.409276C65.7948 0.409277 76.3487 3.6109 85.3255 9.60926C94.3023 15.6076 101.299 24.1333 105.43 34.108C109.561 44.0828 110.641 55.0586 108.534 65.6475C106.428 76.2363 101.228 85.9625 93.593 93.5961C85.9581 101.23 76.2309 106.428 65.6418 108.533C55.0526 110.638 44.0769 109.556 34.1029 105.423C24.1288 101.29 15.6044 94.2921 9.60753 85.3143C3.61071 76.3365 0.41088 65.7821 0.412722 54.9856C0.425065 40.5176 6.18184 26.6464 16.4176 16.4211C26.6533 6.19586 40.5303 0.45335 54.9983 0.455824" fill="white"/>
</g>
<defs>
<clipPath id="clip0_2083_1500">
<rect width="110" height="110" fill="white"/>
</clipPath>
</defs>
</svg>
