<svg width="616" height="59" viewBox="0 0 616 59" fill="none" xmlns="http://www.w3.org/2000/svg">
<g clip-path="url(#clip0_752_2533)">
<path d="M580.376 20.4443L571.928 29.3762L544.774 58.0122H561.692L580.376 38.2857L588.846 29.3762L616 0.740234H599.082L580.376 20.4443Z" fill="white"/>
<path d="M584.488 42.348L599.082 58.0125H616L593.026 33.5059L584.488 42.348Z" fill="white"/>
<path d="M576.8 16.8536C570.565 10.2781 567.861 7.31574 561.692 0.740234H544.774C553.826 10.2781 559.279 16.2253 568.33 25.7631L576.8 16.8536Z" fill="white"/>
<path d="M507.854 0.785156H495.606V58.0122H507.854V0.785156Z" fill="white"/>
<path d="M453.949 12.9946L461.905 0.763672H390.434L398.39 12.9946H453.949Z" fill="white"/>
<path d="M431.802 19.0312H419.555V58.013H431.802V19.0312Z" fill="white"/>
<path d="M320.705 44.8622L364.62 0.763672H347.3L326.694 21.4552L306.089 0.763672H288.769L320.705 32.8333V44.8622Z" fill="white"/>
<path d="M320.705 52.8509V58.035H332.952V40.5527L320.705 52.8509Z" fill="white"/>
<path d="M226.863 45.8048V0.763672H214.616V58.0356H214.639H226.863H268.008L275.986 45.8048H226.863Z" fill="white"/>
<path d="M182.12 58.0348L144.887 0.875L137.624 12.0287L152.665 35.099H122.606L114.649 47.3299H160.621L167.594 58.0348H182.12Z" fill="white"/>
<path d="M43.9826 35.8396H61.9958V43.5148C54.694 45.6591 47.1203 46.7249 39.5129 46.6791C29.7465 46.4547 21.9691 43.8963 16.3372 39.0488C14.4545 37.4821 13.1355 35.3387 12.5825 32.947C12.0294 30.5553 12.2728 28.0475 13.2754 25.808C14.4427 23.4886 16.0573 21.4252 18.0255 19.7378C19.9936 18.0504 22.2761 16.7725 24.7403 15.9784C30.5496 13.8666 36.6474 12.6631 42.8205 12.4102C49.4719 12.0823 56.1363 12.6865 62.6215 14.2055L69.7061 3.3212C65.8067 2.20911 61.8335 1.37663 57.8165 0.830101C52.6374 0.0805793 47.3972 -0.152451 42.1724 0.134404C34.7063 0.48355 27.3398 1.99782 20.3376 4.6228C16.4078 5.98995 12.7856 8.12314 9.67904 10.8999C6.57249 13.6766 4.04274 17.0422 2.23508 20.8035C0.084384 25.469 -0.442948 30.7249 0.737719 35.7274C1.88524 40.7064 4.59613 45.183 8.4704 48.4969C12.7748 52.1424 17.7694 54.8754 23.1536 56.5311C28.4098 58.1332 33.864 58.9868 39.3564 59.0671H40.9209C45.7994 59.0446 50.6669 58.6017 55.4699 57.743C60.4671 56.852 65.3903 55.5842 70.1978 53.9503L74.377 52.5365V23.5863H51.9165L43.9826 35.8396Z" fill="white"/>
</g>
<defs>
<clipPath id="clip0_752_2533">
<rect width="616" height="59" fill="white"/>
</clipPath>
</defs>
</svg>
